<svg xmlns="http://www.w3.org/2000/svg" xmlns:xlink="http://www.w3.org/1999/xlink" width="1256" zoomAndPan="magnify" viewBox="0 0 942 1025.999948" height="1368" preserveAspectRatio="xMidYMid meet" version="1.0"><defs><filter x="0%" y="0%" width="100%" height="100%" id="bb696ad902"><feColorMatrix values="0 0 0 0 1 0 0 0 0 1 0 0 0 0 1 0 0 0 1 0" color-interpolation-filters="sRGB"/></filter><clipPath id="644a55af4e"><path d="M 332.316406 122.605469 L 761.992188 122.605469 L 761.992188 339.136719 L 332.316406 339.136719 Z M 332.316406 122.605469 " clip-rule="nonzero"/></clipPath><clipPath id="6c7632df03"><path d="M 754.691406 194.824219 C 759.097656 205.886719 761.992188 218.542969 761.992188 230.929688 C 761.992188 243.316406 759.511719 255.234375 755.105469 266.21875 C 754.96875 266.453125 754.96875 266.6875 754.828125 266.921875 C 737.203125 308.171875 690.652344 338.554688 633.621094 339.136719 L 332.46875 339.136719 L 332.46875 122.605469 L 633.398438 122.605469 C 690.925781 123.191406 737.476562 153.105469 754.691406 194.824219 Z M 754.691406 194.824219 " clip-rule="nonzero"/></clipPath><clipPath id="e25cd0e568"><path d="M 0.398438 0.605469 L 429.992188 0.605469 L 429.992188 217.136719 L 0.398438 217.136719 Z M 0.398438 0.605469 " clip-rule="nonzero"/></clipPath><clipPath id="bfe3f02734"><path d="M 422.691406 72.824219 C 427.097656 83.886719 429.992188 96.542969 429.992188 108.929688 C 429.992188 121.316406 427.511719 133.234375 423.105469 144.21875 C 422.96875 144.453125 422.96875 144.6875 422.828125 144.921875 C 405.203125 186.171875 358.652344 216.554688 301.621094 217.136719 L 0.46875 217.136719 L 0.46875 0.605469 L 301.398438 0.605469 C 358.925781 1.191406 405.476562 31.105469 422.691406 72.824219 Z M 422.691406 72.824219 " clip-rule="nonzero"/></clipPath><clipPath id="6b07772961"><rect x="0" width="430" y="0" height="218"/></clipPath><clipPath id="d213a0c14e"><path d="M 114.085938 122.609375 L 362.023438 122.609375 L 362.023438 500 L 114.085938 500 Z M 114.085938 122.609375 " clip-rule="nonzero"/></clipPath><clipPath id="4ed72554f5"><path d="M 128.335938 122.609375 L 347.773438 122.609375 C 355.640625 122.609375 362.023438 128.988281 362.023438 136.859375 L 362.023438 485.277344 C 362.023438 493.148438 355.640625 499.527344 347.773438 499.527344 L 128.335938 499.527344 C 120.46875 499.527344 114.085938 493.148438 114.085938 485.277344 L 114.085938 136.859375 C 114.085938 128.988281 120.46875 122.609375 128.335938 122.609375 Z M 128.335938 122.609375 " clip-rule="nonzero"/></clipPath><clipPath id="837a2f6329"><path d="M 0.0859375 0.609375 L 248.023438 0.609375 L 248.023438 377.679688 L 0.0859375 377.679688 Z M 0.0859375 0.609375 " clip-rule="nonzero"/></clipPath><clipPath id="7fa964e13e"><path d="M 14.335938 0.609375 L 233.773438 0.609375 C 241.640625 0.609375 248.023438 6.988281 248.023438 14.859375 L 248.023438 363.277344 C 248.023438 371.148438 241.640625 377.527344 233.773438 377.527344 L 14.335938 377.527344 C 6.46875 377.527344 0.0859375 371.148438 0.0859375 363.277344 L 0.0859375 14.859375 C 0.0859375 6.988281 6.46875 0.609375 14.335938 0.609375 Z M 14.335938 0.609375 " clip-rule="nonzero"/></clipPath><clipPath id="fc77803d57"><rect x="0" width="249" y="0" height="378"/></clipPath><clipPath id="ef369896ca"><path d="M 114.085938 482.613281 L 485.800781 482.613281 L 485.800781 643.898438 L 114.085938 643.898438 Z M 114.085938 482.613281 " clip-rule="nonzero"/></clipPath><clipPath id="3cb999f9f4"><path d="M 129.835938 482.613281 L 469.6875 482.613281 C 473.867188 482.613281 477.871094 484.273438 480.828125 487.226562 C 483.78125 490.179688 485.4375 494.183594 485.4375 498.363281 L 485.4375 628.148438 C 485.4375 632.324219 483.78125 636.332031 480.828125 639.285156 C 477.871094 642.238281 473.867188 643.898438 469.6875 643.898438 L 129.835938 643.898438 C 125.660156 643.898438 121.65625 642.238281 118.699219 639.285156 C 115.746094 636.332031 114.085938 632.324219 114.085938 628.148438 L 114.085938 498.363281 C 114.085938 494.183594 115.746094 490.179688 118.699219 487.226562 C 121.65625 484.273438 125.660156 482.613281 129.835938 482.613281 Z M 129.835938 482.613281 " clip-rule="nonzero"/></clipPath><clipPath id="a0ac17677d"><path d="M 0.0859375 0.613281 L 371.519531 0.613281 L 371.519531 161.898438 L 0.0859375 161.898438 Z M 0.0859375 0.613281 " clip-rule="nonzero"/></clipPath><clipPath id="ce76e09d1d"><path d="M 15.835938 0.613281 L 355.6875 0.613281 C 359.867188 0.613281 363.871094 2.273438 366.828125 5.226562 C 369.78125 8.179688 371.4375 12.183594 371.4375 16.363281 L 371.4375 146.148438 C 371.4375 150.324219 369.78125 154.332031 366.828125 157.285156 C 363.871094 160.238281 359.867188 161.898438 355.6875 161.898438 L 15.835938 161.898438 C 11.660156 161.898438 7.65625 160.238281 4.699219 157.285156 C 1.746094 154.332031 0.0859375 150.324219 0.0859375 146.148438 L 0.0859375 16.363281 C 0.0859375 12.183594 1.746094 8.179688 4.699219 5.226562 C 7.65625 2.273438 11.660156 0.613281 15.835938 0.613281 Z M 15.835938 0.613281 " clip-rule="nonzero"/></clipPath><clipPath id="e24a92538e"><rect x="0" width="372" y="0" height="162"/></clipPath><mask id="d26b0ef7c2"><g filter="url(#bb696ad902)"><rect x="-94.2" width="1130.4" fill="#000000" y="-102.599995" height="1231.199937" fill-opacity="0.36"/></g></mask><clipPath id="b147102c74"><path d="M 25 26 L 241 26 L 241 236 L 25 236 Z M 25 26 " clip-rule="nonzero"/></clipPath><clipPath id="9b07923f30"><path d="M 85.089844 0.4375 L 266.054688 170.425781 L 181.0625 260.90625 L 0.0976562 90.921875 Z M 85.089844 0.4375 " clip-rule="nonzero"/></clipPath><clipPath id="2ea300cdbe"><path d="M 220.816406 127.929688 C 245.800781 151.398438 247.03125 190.679688 223.558594 215.664062 C 200.089844 240.652344 160.808594 241.882812 135.820312 218.410156 L 45.339844 133.417969 C 20.351562 109.949219 19.125 70.667969 42.59375 45.679688 C 66.0625 20.695312 105.34375 19.464844 130.332031 42.933594 Z M 220.816406 127.929688 " clip-rule="nonzero"/></clipPath><clipPath id="d66e009c65"><path d="M 0 0 L 216 0 L 216 210 L 0 210 Z M 0 0 " clip-rule="nonzero"/></clipPath><clipPath id="8e217b9c0f"><path d="M 60.089844 -25.5625 L 241.054688 144.425781 L 156.0625 234.90625 L -24.902344 64.921875 Z M 60.089844 -25.5625 " clip-rule="nonzero"/></clipPath><clipPath id="9d804b6822"><path d="M 195.816406 101.929688 C 220.800781 125.398438 222.03125 164.679688 198.558594 189.664062 C 175.089844 214.652344 135.808594 215.882812 110.820312 192.410156 L 20.339844 107.417969 C -4.648438 83.949219 -5.875 44.667969 17.59375 19.679688 C 41.0625 -5.304688 80.34375 -6.535156 105.332031 16.933594 Z M 195.816406 101.929688 " clip-rule="nonzero"/></clipPath><clipPath id="6757a292db"><rect x="0" width="216" y="0" height="210"/></clipPath><clipPath id="7743d87f8f"><rect x="0" width="267" y="0" height="262"/></clipPath><clipPath id="13f3bf4c8d"><path d="M 425.195312 379 L 828.207031 379 L 828.207031 910 L 425.195312 910 Z M 425.195312 379 " clip-rule="nonzero"/></clipPath><clipPath id="ddd4b3ecc3"><path d="M 425.195312 909.832031 C 644.710938 909.832031 828.207031 789.054688 828.207031 644.566406 C 828.207031 500.078125 644.710938 379.300781 425.195312 379.300781 L 425.195312 526.59375 C 522.824219 526.59375 604.429688 580.308594 604.429688 644.566406 C 604.429688 708.824219 522.824219 762.542969 425.195312 762.542969 Z M 425.195312 909.832031 " clip-rule="nonzero"/></clipPath><clipPath id="e7c62a2f09"><path d="M 0.195312 0.199219 L 403.207031 0.199219 L 403.207031 530.839844 L 0.195312 530.839844 Z M 0.195312 0.199219 " clip-rule="nonzero"/></clipPath><clipPath id="2a7cd4e075"><path d="M 0.195312 530.832031 C 219.710938 530.832031 403.207031 410.054688 403.207031 265.566406 C 403.207031 121.078125 219.710938 0.300781 0.195312 0.300781 L 0.195312 147.59375 C 97.824219 147.59375 179.429688 201.308594 179.429688 265.566406 C 179.429688 329.824219 97.824219 383.542969 0.195312 383.542969 Z M 0.195312 530.832031 " clip-rule="nonzero"/></clipPath><clipPath id="b595bf72ce"><rect x="0" width="404" y="0" height="531"/></clipPath><linearGradient id="qfBg" x1="0" y1="0" x2="1" y2="1"><stop offset="0" stop-color="#4f6ef7"/><stop offset="1" stop-color="#7c5cfc"/></linearGradient></defs><rect x="0" y="0" width="942" height="1025.999948" rx="190" fill="url(#qfBg)"/><g transform="translate(84 158) scale(0.78)"><g clip-path="url(#644a55af4e)"><g clip-path="url(#6c7632df03)"><g transform="matrix(1, 0, 0, 1, 332, 122)"><g clip-path="url(#6b07772961)"><g clip-path="url(#e25cd0e568)"><g clip-path="url(#bfe3f02734)"><path fill="#ffffff" d="M 429.992188 0.605469 L 429.992188 217.136719 L 0.316406 217.136719 L 0.316406 0.605469 Z M 429.992188 0.605469 " fill-opacity="1" fill-rule="nonzero"/></g></g></g></g></g></g><g clip-path="url(#d213a0c14e)"><g clip-path="url(#4ed72554f5)"><g transform="matrix(1, 0, 0, 1, 114, 122)"><g clip-path="url(#fc77803d57)"><g clip-path="url(#837a2f6329)"><g clip-path="url(#7fa964e13e)"><path fill="#ffffff" d="M 0.0859375 0.609375 L 248.023438 0.609375 L 248.023438 377.351562 L 0.0859375 377.351562 Z M 0.0859375 0.609375 " fill-opacity="1" fill-rule="nonzero"/></g></g></g></g></g></g><g clip-path="url(#ef369896ca)"><g clip-path="url(#3cb999f9f4)"><g transform="matrix(1, 0, 0, 1, 114, 482)"><g clip-path="url(#e24a92538e)"><g clip-path="url(#a0ac17677d)"><g clip-path="url(#ce76e09d1d)"><path fill="#ffffff" d="M 0.0859375 0.613281 L 371.171875 0.613281 L 371.171875 161.898438 L 0.0859375 161.898438 Z M 0.0859375 0.613281 " fill-opacity="1" fill-rule="nonzero"/></g></g></g></g></g></g><g mask="url(#d26b0ef7c2)"><g transform="matrix(1, 0, 0, 1, 611, 697)"><g clip-path="url(#7743d87f8f)"><g clip-path="url(#b147102c74)"><g clip-path="url(#9b07923f30)"><g clip-path="url(#2ea300cdbe)"><g transform="matrix(1, 0, 0, 1, 25, 26)"><g clip-path="url(#6757a292db)"><g clip-path="url(#d66e009c65)"><g clip-path="url(#8e217b9c0f)"><g clip-path="url(#9d804b6822)"><path fill="#ffffff" d="M 60.089844 -25.5625 L 241.054688 144.425781 L 156.0625 234.90625 L -24.902344 64.921875 Z M 60.089844 -25.5625 " fill-opacity="1" fill-rule="nonzero"/></g></g></g></g></g></g></g></g></g></g></g><g clip-path="url(#13f3bf4c8d)"><g clip-path="url(#ddd4b3ecc3)"><g transform="matrix(1, 0, 0, 1, 425, 379)"><g clip-path="url(#b595bf72ce)"><g clip-path="url(#e7c62a2f09)"><g clip-path="url(#2a7cd4e075)"><path fill="#ffffff" d="M 403.207031 0.300781 L 403.207031 530.824219 L 0.195312 530.824219 L 0.195312 0.300781 Z M 403.207031 0.300781 " fill-opacity="1" fill-rule="nonzero"/></g></g></g></g></g></g></g></svg>